<?xml version="1.0" standalone="no"?>
<!DOCTYPE svg PUBLIC "-//W3C//DTD SVG 20010904//EN"
 "http://www.w3.org/TR/2001/REC-SVG-20010904/DTD/svg10.dtd">
<svg version="1.0" xmlns="http://www.w3.org/2000/svg"
 width="980.000000pt" height="912.000000pt" viewBox="0 0 980.000000 912.000000"
 preserveAspectRatio="xMidYMid meet">
<metadata>
Created by potrace 1.16, written by Peter Selinger 2001-2019
</metadata>
<g transform="translate(0.000000,912.000000) scale(0.100000,-0.100000)"
fill="#000000" stroke="none">
<path d="M2948 9025 c-31 -55 -105 -198 -164 -318 -80 -160 -113 -217 -124
-214 -338 100 -400 111 -635 110 -199 0 -306 -14 -493 -63 -668 -178 -1169
-717 -1320 -1420 -24 -114 -26 -145 -27 -350 0 -171 4 -247 17 -315 37 -193
110 -400 200 -562 161 -293 513 -636 781 -763 27 -12 51 -29 54 -37 3 -8 -31
-128 -76 -266 -92 -285 -114 -374 -141 -559 -50 -335 -53 -896 -7 -1159 35
-197 87 -412 144 -591 25 -82 45 -150 42 -152 -2 -2 -148 -65 -324 -141 -176
-76 -322 -140 -324 -142 -2 -2 -2 -6 1 -9 14 -13 1250 -505 1486 -590 52 -19
98 -31 104 -28 28 18 282 630 533 1284 106 275 114 300 106 300 -13 0 -204
-78 -391 -160 -91 -40 -180 -79 -197 -86 -32 -14 -33 -14 -52 23 -42 84 -105
342 -132 543 -18 135 -15 477 5 633 49 381 170 729 361 1037 203 326 537 667
850 865 224 142 519 268 766 329 215 52 309 61 649 61 287 0 327 -2 445 -23
251 -46 465 -121 732 -256 265 -135 468 -280 667 -481 215 -217 369 -432 501
-700 146 -297 229 -581 255 -868 20 -228 8 -604 -26 -785 -51 -279 -200 -652
-366 -917 -82 -130 -172 -239 -352 -422 -238 -244 -423 -384 -676 -512 -233
-118 -529 -219 -729 -247 -207 -29 -590 -34 -2828 -34 l-2263 0 0 -520 0 -520
1628 1 c895 0 2003 4 2462 9 753 8 850 11 987 29 904 122 1700 544 2287 1211
496 565 795 1236 893 2005 24 187 24 640 0 830 -91 706 -346 1316 -777 1860
-130 163 -406 439 -570 570 -425 339 -871 562 -1391 694 -315 80 -504 101
-927 101 -323 0 -415 -7 -637 -51 -632 -124 -1203 -394 -1667 -786 -48 -41
-182 -166 -298 -279 -115 -112 -212 -204 -215 -204 -17 0 -114 46 -179 85
-149 91 -237 191 -321 368 -53 109 -65 175 -65 346 0 147 14 210 76 337 102
209 284 361 509 425 67 20 105 23 235 24 85 0 163 -3 172 -7 15 -6 -3 -49
-134 -313 -83 -168 -148 -308 -146 -311 8 -7 334 98 913 294 559 190 695 238
706 249 8 9 2 29 -158 528 -116 362 -330 992 -362 1068 l-18 41 -55 -99z"/>
<path d="M7639 983 c-326 -355 -733 -674 -1119 -878 -80 -42 -149 -80 -153
-84 -13 -13 782 -21 2135 -21 l1298 0 0 520 0 520 -1054 0 -1054 0 -53 -57z"/>
</g>
</svg>
